<?xml version="1.0" encoding="UTF-8" standalone="no"?>
<!DOCTYPE svg PUBLIC "-//W3C//DTD SVG 1.1//EN"
 "http://www.w3.org/Graphics/SVG/1.1/DTD/svg11.dtd">
<!-- Generated by graphviz version 3.0.0 (20220226.1711)
 -->
<!-- Title: dependencies Pages: 1 -->
<svg width="2605pt" height="247pt"
 viewBox="0.00 0.00 2605.00 246.80" xmlns="http://www.w3.org/2000/svg" xmlns:xlink="http://www.w3.org/1999/xlink">
<g id="graph0" class="graph" transform="scale(1 1) rotate(0) translate(4 242.8)">
<title>dependencies</title>
<polygon fill="white" stroke="transparent" points="-4,4 -4,-242.8 2601,-242.8 2601,4 -4,4"/>
<text text-anchor="middle" x="1298.5" y="-8.2" font-family="sans-serif" font-size="14.00">dependencies</text>
<g id="clust1" class="cluster">
<title>cluster_AppModule</title>
<polygon fill="none" stroke="black" stroke-dasharray="1,5" points="8,-32.8 8,-230.8 2589,-230.8 2589,-32.8 8,-32.8"/>
</g>
<g id="clust2" class="cluster">
<title>cluster_AppModule_declarations</title>
<polygon fill="none" stroke="black" points="293,-40.8 293,-92.8 2581,-92.8 2581,-40.8 293,-40.8"/>
</g>
<g id="clust18" class="cluster">
<title>cluster_AppModule_imports</title>
<polygon fill="none" stroke="black" points="16,-40.8 16,-92.8 285,-92.8 285,-40.8 16,-40.8"/>
</g>
<g id="clust19" class="cluster">
<title>cluster_AppModule_exports</title>
<polygon fill="none" stroke="black" points="1124,-170.8 1124,-222.8 1250,-222.8 1250,-170.8 1124,-170.8"/>
</g>
<g id="clust20" class="cluster">
<title>cluster_AppModule_bootstrap</title>
<polygon fill="none" stroke="black" points="1258,-170.8 1258,-222.8 1382,-222.8 1382,-170.8 1258,-170.8"/>
</g>
<!-- AppComponent -->
<g id="node1" class="node">
<title>AppComponent</title>
<polygon fill="#ffffb3" stroke="black" points="2572.94,-84.8 2467.06,-84.8 2467.06,-48.8 2572.94,-48.8 2572.94,-84.8"/>
<text text-anchor="middle" x="2520" y="-62.6" font-family="Times,serif" font-size="14.00">AppComponent</text>
</g>
<!-- AppModule -->
<g id="node16" class="node">
<title>AppModule</title>
<polygon fill="#8dd3c7" stroke="black" points="1294.66,-149.8 1291.66,-153.8 1270.66,-153.8 1267.66,-149.8 1211.34,-149.8 1211.34,-113.8 1294.66,-113.8 1294.66,-149.8"/>
<text text-anchor="middle" x="1253" y="-127.6" font-family="Times,serif" font-size="14.00">AppModule</text>
</g>
<!-- AppComponent&#45;&gt;AppModule -->
<g id="edge1" class="edge">
<title>AppComponent&#45;&gt;AppModule</title>
<path fill="none" stroke="black" d="M2520,-85.12C2520,-108.46 2520,-145.8 2520,-145.8 2520,-145.8 1304.79,-145.8 1304.79,-145.8"/>
<polygon fill="black" stroke="black" points="1304.79,-142.3 1294.79,-145.8 1304.79,-149.3 1304.79,-142.3"/>
</g>
<!-- AppFooterComponent -->
<g id="node2" class="node">
<title>AppFooterComponent</title>
<polygon fill="#ffffb3" stroke="black" points="2448.99,-84.8 2307.01,-84.8 2307.01,-48.8 2448.99,-48.8 2448.99,-84.8"/>
<text text-anchor="middle" x="2378" y="-62.6" font-family="Times,serif" font-size="14.00">AppFooterComponent</text>
</g>
<!-- AppFooterComponent&#45;&gt;AppModule -->
<g id="edge2" class="edge">
<title>AppFooterComponent&#45;&gt;AppModule</title>
<path fill="none" stroke="black" d="M2378,-84.96C2378,-107.15 2378,-141.8 2378,-141.8 2378,-141.8 1304.71,-141.8 1304.71,-141.8"/>
<polygon fill="black" stroke="black" points="1304.71,-138.3 1294.71,-141.8 1304.71,-145.3 1304.71,-138.3"/>
</g>
<!-- AppHeaderComponent -->
<g id="node3" class="node">
<title>AppHeaderComponent</title>
<polygon fill="#ffffb3" stroke="black" points="2288.86,-84.8 2143.14,-84.8 2143.14,-48.8 2288.86,-48.8 2288.86,-84.8"/>
<text text-anchor="middle" x="2216" y="-62.6" font-family="Times,serif" font-size="14.00">AppHeaderComponent</text>
</g>
<!-- AppHeaderComponent&#45;&gt;AppModule -->
<g id="edge3" class="edge">
<title>AppHeaderComponent&#45;&gt;AppModule</title>
<path fill="none" stroke="black" d="M2216,-85.08C2216,-106.12 2216,-137.8 2216,-137.8 2216,-137.8 1304.69,-137.8 1304.69,-137.8"/>
<polygon fill="black" stroke="black" points="1304.69,-134.3 1294.69,-137.8 1304.69,-141.3 1304.69,-134.3"/>
</g>
<!-- DesignComponent -->
<g id="node4" class="node">
<title>DesignComponent</title>
<polygon fill="#ffffb3" stroke="black" points="2125.49,-84.8 2004.51,-84.8 2004.51,-48.8 2125.49,-48.8 2125.49,-84.8"/>
<text text-anchor="middle" x="2065" y="-62.6" font-family="Times,serif" font-size="14.00">DesignComponent</text>
</g>
<!-- DesignComponent&#45;&gt;AppModule -->
<g id="edge4" class="edge">
<title>DesignComponent&#45;&gt;AppModule</title>
<path fill="none" stroke="black" d="M2065,-85.11C2065,-104.95 2065,-133.8 2065,-133.8 2065,-133.8 1304.66,-133.8 1304.66,-133.8"/>
<polygon fill="black" stroke="black" points="1304.66,-130.3 1294.66,-133.8 1304.66,-137.3 1304.66,-130.3"/>
</g>
<!-- DevelopmentComponent -->
<g id="node5" class="node">
<title>DevelopmentComponent</title>
<polygon fill="#ffffb3" stroke="black" points="1986.25,-84.8 1829.75,-84.8 1829.75,-48.8 1986.25,-48.8 1986.25,-84.8"/>
<text text-anchor="middle" x="1908" y="-62.6" font-family="Times,serif" font-size="14.00">DevelopmentComponent</text>
</g>
<!-- DevelopmentComponent&#45;&gt;AppModule -->
<g id="edge5" class="edge">
<title>DevelopmentComponent&#45;&gt;AppModule</title>
<path fill="none" stroke="black" d="M1908,-85.02C1908,-103.63 1908,-129.8 1908,-129.8 1908,-129.8 1304.97,-129.8 1304.97,-129.8"/>
<polygon fill="black" stroke="black" points="1304.97,-126.3 1294.97,-129.8 1304.97,-133.3 1304.97,-126.3"/>
</g>
<!-- InventoryComponent -->
<g id="node6" class="node">
<title>InventoryComponent</title>
<polygon fill="#ffffb3" stroke="black" points="1811.76,-84.8 1676.24,-84.8 1676.24,-48.8 1811.76,-48.8 1811.76,-84.8"/>
<text text-anchor="middle" x="1744" y="-62.6" font-family="Times,serif" font-size="14.00">InventoryComponent</text>
</g>
<!-- InventoryComponent&#45;&gt;AppModule -->
<g id="edge6" class="edge">
<title>InventoryComponent&#45;&gt;AppModule</title>
<path fill="none" stroke="black" d="M1744,-84.82C1744,-102.17 1744,-125.8 1744,-125.8 1744,-125.8 1304.86,-125.8 1304.86,-125.8"/>
<polygon fill="black" stroke="black" points="1304.86,-122.3 1294.86,-125.8 1304.86,-129.3 1304.86,-122.3"/>
</g>
<!-- KitchenTableComponent -->
<g id="node7" class="node">
<title>KitchenTableComponent</title>
<polygon fill="#ffffb3" stroke="black" points="1657.52,-84.8 1500.48,-84.8 1500.48,-48.8 1657.52,-48.8 1657.52,-84.8"/>
<text text-anchor="middle" x="1579" y="-62.6" font-family="Times,serif" font-size="14.00">KitchenTableComponent</text>
</g>
<!-- KitchenTableComponent&#45;&gt;AppModule -->
<g id="edge7" class="edge">
<title>KitchenTableComponent&#45;&gt;AppModule</title>
<path fill="none" stroke="black" d="M1579,-84.81C1579,-100.85 1579,-121.8 1579,-121.8 1579,-121.8 1304.95,-121.8 1304.95,-121.8"/>
<polygon fill="black" stroke="black" points="1304.95,-118.3 1294.95,-121.8 1304.95,-125.3 1304.95,-118.3"/>
</g>
<!-- LandingComponent -->
<g id="node8" class="node">
<title>LandingComponent</title>
<polygon fill="#ffffb3" stroke="black" points="1481.99,-84.8 1354.01,-84.8 1354.01,-48.8 1481.99,-48.8 1481.99,-84.8"/>
<text text-anchor="middle" x="1418" y="-62.6" font-family="Times,serif" font-size="14.00">LandingComponent</text>
</g>
<!-- LandingComponent&#45;&gt;AppModule -->
<g id="edge8" class="edge">
<title>LandingComponent&#45;&gt;AppModule</title>
<path fill="none" stroke="black" d="M1364.24,-84.92C1364.24,-99.58 1364.24,-117.8 1364.24,-117.8 1364.24,-117.8 1304.74,-117.8 1304.74,-117.8"/>
<polygon fill="black" stroke="black" points="1304.74,-114.3 1294.74,-117.8 1304.74,-121.3 1304.74,-114.3"/>
</g>
<!-- PageNotFoundComponent -->
<g id="node9" class="node">
<title>PageNotFoundComponent</title>
<polygon fill="#ffffb3" stroke="black" points="1335.83,-84.8 1170.17,-84.8 1170.17,-48.8 1335.83,-48.8 1335.83,-84.8"/>
<text text-anchor="middle" x="1253" y="-62.6" font-family="Times,serif" font-size="14.00">PageNotFoundComponent</text>
</g>
<!-- PageNotFoundComponent&#45;&gt;AppModule -->
<g id="edge9" class="edge">
<title>PageNotFoundComponent&#45;&gt;AppModule</title>
<path fill="none" stroke="black" d="M1253,-84.91C1253,-84.91 1253,-103.79 1253,-103.79"/>
<polygon fill="black" stroke="black" points="1249.5,-103.79 1253,-113.79 1256.5,-103.79 1249.5,-103.79"/>
</g>
<!-- RecipeComponent -->
<g id="node10" class="node">
<title>RecipeComponent</title>
<polygon fill="#ffffb3" stroke="black" points="1152.2,-84.8 1031.8,-84.8 1031.8,-48.8 1152.2,-48.8 1152.2,-84.8"/>
<text text-anchor="middle" x="1092" y="-62.6" font-family="Times,serif" font-size="14.00">RecipeComponent</text>
</g>
<!-- RecipeComponent&#45;&gt;AppModule -->
<g id="edge10" class="edge">
<title>RecipeComponent&#45;&gt;AppModule</title>
<path fill="none" stroke="black" d="M1141.93,-84.92C1141.93,-99.58 1141.93,-117.8 1141.93,-117.8 1141.93,-117.8 1201.33,-117.8 1201.33,-117.8"/>
<polygon fill="black" stroke="black" points="1201.33,-121.3 1211.33,-117.8 1201.33,-114.3 1201.33,-121.3"/>
</g>
<!-- RecipesComponent -->
<g id="node11" class="node">
<title>RecipesComponent</title>
<polygon fill="#ffffb3" stroke="black" points="1013.65,-84.8 888.35,-84.8 888.35,-48.8 1013.65,-48.8 1013.65,-84.8"/>
<text text-anchor="middle" x="951" y="-62.6" font-family="Times,serif" font-size="14.00">RecipesComponent</text>
</g>
<!-- RecipesComponent&#45;&gt;AppModule -->
<g id="edge11" class="edge">
<title>RecipesComponent&#45;&gt;AppModule</title>
<path fill="none" stroke="black" d="M951,-84.81C951,-100.85 951,-121.8 951,-121.8 951,-121.8 1201.33,-121.8 1201.33,-121.8"/>
<polygon fill="black" stroke="black" points="1201.33,-125.3 1211.33,-121.8 1201.33,-118.3 1201.33,-125.3"/>
</g>
<!-- SidebarComponent -->
<g id="node12" class="node">
<title>SidebarComponent</title>
<polygon fill="#ffffb3" stroke="black" points="870.1,-84.8 745.9,-84.8 745.9,-48.8 870.1,-48.8 870.1,-84.8"/>
<text text-anchor="middle" x="808" y="-62.6" font-family="Times,serif" font-size="14.00">SidebarComponent</text>
</g>
<!-- SidebarComponent&#45;&gt;AppModule -->
<g id="edge12" class="edge">
<title>SidebarComponent&#45;&gt;AppModule</title>
<path fill="none" stroke="black" d="M808,-84.82C808,-102.17 808,-125.8 808,-125.8 808,-125.8 1201.14,-125.8 1201.14,-125.8"/>
<polygon fill="black" stroke="black" points="1201.14,-129.3 1211.14,-125.8 1201.14,-122.3 1201.14,-129.3"/>
</g>
<!-- SpaceVideoComponent -->
<g id="node13" class="node">
<title>SpaceVideoComponent</title>
<polygon fill="#ffffb3" stroke="black" points="727.47,-84.8 578.53,-84.8 578.53,-48.8 727.47,-48.8 727.47,-84.8"/>
<text text-anchor="middle" x="653" y="-62.6" font-family="Times,serif" font-size="14.00">SpaceVideoComponent</text>
</g>
<!-- SpaceVideoComponent&#45;&gt;AppModule -->
<g id="edge13" class="edge">
<title>SpaceVideoComponent&#45;&gt;AppModule</title>
<path fill="none" stroke="black" d="M653,-85.02C653,-103.63 653,-129.8 653,-129.8 653,-129.8 1201.29,-129.8 1201.29,-129.8"/>
<polygon fill="black" stroke="black" points="1201.29,-133.3 1211.29,-129.8 1201.29,-126.3 1201.29,-133.3"/>
</g>
<!-- TableComponent -->
<g id="node14" class="node">
<title>TableComponent</title>
<polygon fill="#ffffb3" stroke="black" points="560.7,-84.8 447.3,-84.8 447.3,-48.8 560.7,-48.8 560.7,-84.8"/>
<text text-anchor="middle" x="504" y="-62.6" font-family="Times,serif" font-size="14.00">TableComponent</text>
</g>
<!-- TableComponent&#45;&gt;AppModule -->
<g id="edge14" class="edge">
<title>TableComponent&#45;&gt;AppModule</title>
<path fill="none" stroke="black" d="M504,-85.11C504,-104.95 504,-133.8 504,-133.8 504,-133.8 1201.13,-133.8 1201.13,-133.8"/>
<polygon fill="black" stroke="black" points="1201.13,-137.3 1211.13,-133.8 1201.13,-130.3 1201.13,-137.3"/>
</g>
<!-- WeatherComponent -->
<g id="node15" class="node">
<title>WeatherComponent</title>
<polygon fill="#ffffb3" stroke="black" points="429.24,-84.8 300.76,-84.8 300.76,-48.8 429.24,-48.8 429.24,-84.8"/>
<text text-anchor="middle" x="365" y="-62.6" font-family="Times,serif" font-size="14.00">WeatherComponent</text>
</g>
<!-- WeatherComponent&#45;&gt;AppModule -->
<g id="edge15" class="edge">
<title>WeatherComponent&#45;&gt;AppModule</title>
<path fill="none" stroke="black" d="M365,-85.08C365,-106.12 365,-137.8 365,-137.8 365,-137.8 1201.06,-137.8 1201.06,-137.8"/>
<polygon fill="black" stroke="black" points="1201.06,-141.3 1211.06,-137.8 1201.06,-134.3 1201.06,-141.3"/>
</g>
<!-- MaterialModule  -->
<g id="node19" class="node">
<title>MaterialModule </title>
<polygon fill="#fb8072" stroke="black" points="1242.47,-214.8 1131.53,-214.8 1131.53,-178.8 1242.47,-178.8 1242.47,-214.8"/>
<text text-anchor="middle" x="1187" y="-192.6" font-family="Times,serif" font-size="14.00">MaterialModule </text>
</g>
<!-- AppModule&#45;&gt;MaterialModule  -->
<g id="edge18" class="edge">
<title>AppModule&#45;&gt;MaterialModule </title>
<path fill="none" stroke="black" stroke-dasharray="5,2" d="M1226.7,-149.91C1226.7,-149.91 1226.7,-168.79 1226.7,-168.79"/>
<polygon fill="black" stroke="black" points="1223.2,-168.79 1226.7,-178.79 1230.2,-168.79 1223.2,-168.79"/>
</g>
<!-- AppComponent  -->
<g id="node20" class="node">
<title>AppComponent </title>
<polygon fill="#80b1d3" stroke="black" points="1374.44,-214.8 1265.56,-214.8 1265.56,-178.8 1374.44,-178.8 1374.44,-214.8"/>
<text text-anchor="middle" x="1320" y="-192.6" font-family="Times,serif" font-size="14.00">AppComponent </text>
</g>
<!-- AppModule&#45;&gt;AppComponent  -->
<g id="edge19" class="edge">
<title>AppModule&#45;&gt;AppComponent </title>
<path fill="none" stroke="black" stroke-dasharray="1,5" d="M1280.18,-149.91C1280.18,-149.91 1280.18,-168.79 1280.18,-168.79"/>
<polygon fill="black" stroke="black" points="1276.68,-168.79 1280.18,-178.79 1283.68,-168.79 1276.68,-168.79"/>
</g>
<!-- AppRoutingModule -->
<g id="node17" class="node">
<title>AppRoutingModule</title>
<polygon fill="#8dd3c7" stroke="black" points="277.28,-84.8 274.28,-88.8 253.28,-88.8 250.28,-84.8 148.72,-84.8 148.72,-48.8 277.28,-48.8 277.28,-84.8"/>
<text text-anchor="middle" x="213" y="-62.6" font-family="Times,serif" font-size="14.00">AppRoutingModule</text>
</g>
<!-- AppRoutingModule&#45;&gt;AppModule -->
<g id="edge16" class="edge">
<title>AppRoutingModule&#45;&gt;AppModule</title>
<path fill="none" stroke="black" d="M213,-84.96C213,-107.15 213,-141.8 213,-141.8 213,-141.8 1201.27,-141.8 1201.27,-141.8"/>
<polygon fill="black" stroke="black" points="1201.27,-145.3 1211.27,-141.8 1201.27,-138.3 1201.27,-145.3"/>
</g>
<!-- MaterialModule -->
<g id="node18" class="node">
<title>MaterialModule</title>
<polygon fill="#8dd3c7" stroke="black" points="130.47,-84.8 127.47,-88.8 106.47,-88.8 103.47,-84.8 23.53,-84.8 23.53,-48.8 130.47,-48.8 130.47,-84.8"/>
<text text-anchor="middle" x="77" y="-62.6" font-family="Times,serif" font-size="14.00">MaterialModule</text>
</g>
<!-- MaterialModule&#45;&gt;AppModule -->
<g id="edge17" class="edge">
<title>MaterialModule&#45;&gt;AppModule</title>
<path fill="none" stroke="black" d="M77,-85.12C77,-108.46 77,-145.8 77,-145.8 77,-145.8 1201.15,-145.8 1201.15,-145.8"/>
<polygon fill="black" stroke="black" points="1201.15,-149.3 1211.15,-145.8 1201.15,-142.3 1201.15,-149.3"/>
</g>
</g>
</svg>
